<svg xmlns="http://www.w3.org/2000/svg" viewBox="0 0 203.69 170.58"><defs><style>.cls-1{fill:#51b069;}.cls-2{fill:#d9eaf6;}.cls-3{fill:#575c74;}.cls-4{fill:#585d74;}.cls-5{fill:#fbfcfc;}</style></defs><g id="Capa_2" data-name="Capa 2"><g id="Capa_1-2" data-name="Capa 1"><path class="cls-1" d="M74.75,91.77a25.77,25.77,0,0,0-2.61-4.49C66.94,78.68,61.75,70,57.93,60.74,51.31,44.61,53.7,29.58,64.51,16a41.42,41.42,0,0,1,20.78-14c13-4,25.08-1.82,36.05,6.15a45.09,45.09,0,0,1,17.4,25.36,37.62,37.62,0,0,1-1.07,23.23c-3.91,10.77-9.69,20.55-15.44,30.37l-2.57,4.39c-1.09,1.6-2.23,3.16-3.25,4.8-2.34,3.8-4.86,7.48-7.4,11.13-1.58,2.28-3.21,4.51-4.82,6.76-1.84,2.24-3.67,4.49-5.54,6.7-1.37,1.62-2,1.58-3.36-.09-.63-.8-1.2-1.63-1.8-2.44-1.63-1.91-2.93-4.06-4.43-6-3.64-4.86-7.08-9.87-10.46-14.91A39.43,39.43,0,0,0,74.75,91.77ZM91,56.44h0V66c0,3.42,0,6.83,0,10.25,0,2.77,1.28,4.14,4,4.25,1.61.07,3.23,0,4.85,0a3.38,3.38,0,0,0,3.19-2.25,6.38,6.38,0,0,0,.42-2.57q0-19.53,0-39.07c0-1.76,0-1.72,1.75-1.38a42.49,42.49,0,0,1,10,3.26,3.38,3.38,0,0,0,4.49-1.56c.43-.81.76-1.67,1.13-2.52,1.24-2.9.55-4.75-2.28-6a50.86,50.86,0,0,0-28.08-4.19A47.06,47.06,0,0,0,75.55,28.6c-2.4,1.17-3.07,3-2,5.49.36.85.7,1.71,1.11,2.53a3.47,3.47,0,0,0,5,1.74,45.8,45.8,0,0,1,10-3.22c1.15-.23,1.52,0,1.51,1.21C91,43.05,91,49.74,91,56.44Z"/><path class="cls-2" d="M10.44,170.47c-2.8-.08-4.94-1.54-6.92-3.33-.64-.58-.1-.72.36-.9,2.65-1.07,5.28-2.16,7.94-3.21q7.44-2.94,14.9-5.84l20-7.83c4.58-1.79,9.14-3.65,13.72-5.43,6.38-2.48,12.78-4.92,19.17-7.39,5.48-2.12,11-4.25,16.44-6.44a3,3,0,0,1,2.24-.07c5.69,2,11.46,3.73,17.08,5.87s11.19,3.89,16.74,5.94c7.15,2.63,14.46,4.81,21.62,7.38,4.54,1.62,9.11,3.17,13.66,4.78s9.12,3.1,13.68,4.67c4.3,1.47,8.58,3,12.88,4.46,1.92.65,3.84,1.27,5.79,1.82,1.11.32,1.06.77.33,1.43a13.56,13.56,0,0,1-7.3,3.58c-4.38.61-9,.24-13.41.22l-14.21-.05c-9.35,0-18.7,0-28.05.13-24,.41-48.07.08-72.1.32C46.83,170.58,28.64,170.48,10.44,170.47Z"/><path class="cls-3" d="M74.75,91.77a39.43,39.43,0,0,1,3.85,5.57c3.38,5,6.82,10,10.46,14.91,1.5,2,2.8,4.14,4.43,6C87.24,120.66,81,123,74.75,125.38Q38,139.63,1.22,153.92L0,154.37c.56-1.88,1.05-3.54,1.54-5.21q7-23.48,14-47c2-6.6,6.7-10.1,13.62-10.13q9.5,0,19-.09Z"/><path class="cls-3" d="M203.08,155.26l-91-31.45,10.6-4.15q31.49-12.33,63-24.71a1.37,1.37,0,0,1,1.84.47c2.11,2.35,2.87,5.3,3.64,8.23,4.44,16.8,8.39,33.73,12.5,50.61a2.7,2.7,0,0,1,.06.41C203.72,155.1,203.51,155.29,203.08,155.26Z"/><path class="cls-4" d="M104.19,114.13c1.61-2.25,3.24-4.48,4.82-6.76,2.54-3.65,5.06-7.33,7.4-11.13,1-1.64,2.16-3.2,3.25-4.8l42.67-.3c.37,0,3.75,0,3.94,0,0,.11-17.15,6-24.58,8.77l-35.95,13.69C105.23,113.78,104.71,114,104.19,114.13Z"/><path class="cls-5" d="M91,56.44c0-6.7,0-13.39,0-20.09,0-1.25-.36-1.44-1.51-1.21a45.8,45.8,0,0,0-10,3.22,3.47,3.47,0,0,1-5-1.74c-.41-.82-.75-1.68-1.11-2.53-1-2.45-.37-4.32,2-5.49a47.06,47.06,0,0,1,14.89-4.43,50.86,50.86,0,0,1,28.08,4.19c2.83,1.3,3.52,3.15,2.28,6-.37.85-.7,1.71-1.13,2.52a3.38,3.38,0,0,1-4.49,1.56,42.49,42.49,0,0,0-10-3.26c-1.76-.34-1.75-.38-1.75,1.38q0,19.53,0,39.07a6.38,6.38,0,0,1-.42,2.57,3.38,3.38,0,0,1-3.19,2.25c-1.62,0-3.24.07-4.85,0-2.7-.11-4-1.48-4-4.25,0-3.42,0-6.83,0-10.25V56.44Z"/></g></g></svg>